Coordinates
version=1
nRows=11
nColumns=36
inDegrees=yes

Units are S.I. units (second, meters, Newtons, ...)
If the header above contains a line with 'inDegrees', this indicates whether rotational values are in degrees (yes) or radians (no).

endheader
time	pelvis_tilt	pelvis_list	pelvis_rotation	pelvis_tx	pelvis_ty	pelvis_tz	hip_flexion_r	hip_adduction_r	hip_rotation_r	knee_angle_r	knee_angle_r_beta	ankle_angle_r	subtalar_angle_r	mtp_angle_r	hip_flexion_l	hip_adduction_l	hip_rotation_l	knee_angle_l	knee_angle_l_beta	ankle_angle_l	subtalar_angle_l	mtp_angle_l	lumbar_extension	lumbar_bending	lumbar_rotation	arm_flex_r	arm_add_r	arm_rot_r	elbow_flex_r	pro_sup_r	arm_flex_l	arm_add_l	arm_rot_l	elbow_flex_l	pro_sup_l
      1.16666670	    -20.94479776	     -3.42941303	      5.26704976	      0.02573239	      1.18342258	      0.08468074	     39.98660611	     -1.88530602	      3.17743599	     32.21429738	      0.56224556	     19.50287309	    -11.84136712	     -7.49999985	     42.34553718	     -2.79778996	     -4.32785164	     40.55245284	      0.70777382	     20.29822910	    -10.58756791	     -7.49999985	    -12.57121548	     -4.43689502	     -2.65688288	    -19.43436300	    -14.87634976	    -34.55383647	     80.63827001	    102.26114055	    -28.20565323	    -18.84281086	     -4.09734726	     14.18471281	     76.11202226
      1.18333330	    -21.44266921	     -3.83519700	      4.99083634	      0.02641904	      1.17292848	      0.08456805	     42.10280274	     -1.13897239	      3.47225049	     35.49641947	      0.61952939	     20.72558005	    -13.67807794	     -7.49999987	     44.15585691	     -4.00052366	     -4.91424954	     43.89818255	      0.76616782	     23.61764276	     -7.53105018	     -7.49999987	    -12.97824867	     -4.32846576	     -2.81922409	    -19.50514837	    -15.01035927	    -27.34837899	     72.66907112	    100.87782022	    -23.66695124	    -18.37531997	     17.89172702	     10.64370213	     67.57995428
      1.20000000	    -21.78838616	     -4.18636814	      5.16966288	      0.02665802	      1.16231841	      0.08522669	     44.32442510	     -0.64969072	      3.54599673	     39.24404119	      0.68493773	     22.42834241	    -14.95029899	     -7.49999987	     46.15253669	     -4.70474095	     -4.87341533	     47.48791700	      0.82882051	     26.01288785	     -6.30469243	     -7.49999987	    -14.03221110	     -4.26213378	     -2.44615387	    -19.11318437	    -14.44108322	    -21.68616774	     64.93468837	     99.95648541	    -19.22307343	    -17.02415469	     19.45835290	     10.23216431	     68.30833179
      1.21666670	    -22.11924392	     -4.69851845	      5.67529453	      0.03342233	      1.14682860	      0.08851050	     46.59379462	     -0.23296873	      3.22696776	     43.49613087	      0.75915070	     24.47588679	    -16.12881141	     -7.49999987	     48.21741297	     -5.47455113	     -4.56021624	     51.02731386	      0.89059464	     28.54501492	     -4.54879953	     -7.49999987	    -14.90762765	     -3.69328516	     -2.59483159	    -18.66856072	    -13.29888553	    -16.84227209	     57.88047552	     98.67503160	    -15.34252641	    -15.77223471	     22.25385418	     11.64670976	     69.91477821
      1.23333330	    -22.10071326	     -5.00712341	      6.23874118	      0.03994115	      1.14700941	      0.08526103	     47.83968235	     -0.18025038	      2.76878574	     46.90215760	      0.81859708	     26.05406634	    -16.47765146	     -7.49999987	     48.96243734	     -5.72101483	     -4.25083512	     52.90516231	      0.92336927	     30.91028984	     -1.86524108	     -7.49999987	    -15.71633258	     -2.53692811	     -3.66352599	    -15.24149939	    -12.31747608	    -10.96664303	     48.98721453	     97.52612996	    -10.25014877	    -15.47963126	     25.85668219	     12.97592904	     72.01286984
      1.25000000	    -21.88506309	     -5.07293448	      6.89822287	      0.03960281	      1.14071029	      0.08461622	     48.72433660	     -0.32963751	      2.50596689	     49.86659191	      0.87033622	     27.83304695	    -16.51166122	     -7.49999987	     49.52513221	     -5.64853530	     -3.98693747	     54.38718195	      0.94923540	     32.71919105	      0.28094855	     -7.49999987	    -16.94938724	     -1.95672923	     -3.78201977	    -10.77222329	    -10.35035361	     -8.40598630	     38.05347173	     96.75946592	     -3.80786943	    -15.01979875	     26.56317734	     14.19648611	     73.04711690
      1.26666670	    -21.12936431	     -5.06171783	      7.89360077	      0.05211728	      1.14144482	      0.08544005	     48.11116090	     -0.59794157	      2.13115266	     51.75114401	      0.90322785	     29.43152959	    -16.29450584	     -7.49999987	     48.59745829	     -5.54221644	     -3.74532727	     54.97480087	      0.95949128	     34.37833981	      2.88688948	     -7.49999987	    -18.61045875	     -1.16465668	     -4.34437409	     -4.24956061	     -8.83144547	     -0.66989475	     27.63543906	     93.07623131	      3.02754680	    -14.36498863	     24.25239667	     17.60701156	     75.50354300
      1.28333330	    -20.63757298	     -5.00556181	      8.74637680	      0.05163263	      1.13210981	      0.08523073	     48.16251315	     -0.96477125	      1.77992563	     53.87465017	      0.94029003	     31.32114748	    -16.23859929	     -7.49999987	     48.52125500	     -5.32363881	     -3.43490860	     56.38608949	      0.98412291	     36.13743592	      4.51682725	     -7.49999987	    -20.34439413	     -0.66075023	     -2.59509128	      0.25999753	     -6.91382911	     -0.35203969	     25.36135153	     92.34993400	     11.28825068	    -12.88178984	     22.52081751	     20.66874659	     75.22108273
      1.30000000	    -19.96485139	     -4.58733806	      9.80930460	      0.06509353	      1.12743668	      0.07981717	     47.74788123	     -1.81992742	      1.50144698	     56.28703223	      0.98239404	     33.27699167	    -15.76538134	     -7.49999987	     47.67707160	     -4.63163832	     -3.26236523	     57.35937839	      1.00111001	     37.40249067	      5.44510303	     -7.49999987	    -22.06587383	     -0.63050236	     -3.75885499	      8.12552363	     -5.25615114	      3.33871916	     23.93510778	     91.42839810	     15.16448877	    -10.55440582	      7.48305709	     27.53561791	     89.37168648
      1.31666670	    -19.38717345	     -4.28840553	     10.48426706	      0.07167225	      1.12015417	      0.07634209	     47.11642546	     -2.43611703	      1.27669857	     57.95461080	      1.01149878	     35.32941918	    -15.13258272	     -7.49999987	     46.86464989	     -4.28545006	     -3.23478254	     58.68807736	      1.02430018	     38.96950952	      6.11796829	     -7.49999987	    -23.27678139	     -0.04362129	     -2.84352812	     14.34971857	     -5.15201018	      4.04533097	     25.39766622	     91.58651882	     23.31311332	     -8.10244617	      7.51943417	     29.48829735	     89.26434143
      1.33333330	    -18.98734992	     -3.72515350	     10.45750657	      0.08613595	      1.12019170	      0.07759839	     46.23198072	     -2.75027807	      1.48735340	     59.09205595	      1.03135094	     37.18073536	    -13.97021119	     -7.49999987	     45.37811080	     -4.13712828	     -3.70737596	     59.03321077	      1.03032390	     39.82830499	      6.18525296	     -7.49999987	    -23.70776704	     -0.92334032	     -1.43460027	     21.80580701	     -5.04608982	      7.79486842	     28.74003266	     93.09461831	     31.85695973	     -6.00811602	      9.55036370	     29.38831683	     89.82718238
